<?xml version="1.0" encoding="utf-8" standalone="no"?>
<!DOCTYPE svg PUBLIC "-//W3C//DTD SVG 1.1//EN"
  "http://www.w3.org/Graphics/SVG/1.1/DTD/svg11.dtd">
<!-- Created with matplotlib (https://matplotlib.org/) -->
<svg height="345.6pt" version="1.1" viewBox="0 0 460.8 345.6" width="460.8pt" xmlns="http://www.w3.org/2000/svg" xmlns:xlink="http://www.w3.org/1999/xlink">
 <metadata>
  <rdf:RDF xmlns:cc="http://creativecommons.org/ns#" xmlns:dc="http://purl.org/dc/elements/1.1/" xmlns:rdf="http://www.w3.org/1999/02/22-rdf-syntax-ns#">
   <cc:Work>
    <dc:type rdf:resource="http://purl.org/dc/dcmitype/StillImage"/>
    <dc:date>2022-03-09T12:53:54.548973</dc:date>
    <dc:format>image/svg+xml</dc:format>
    <dc:creator>
     <cc:Agent>
      <dc:title>Matplotlib v3.3.4, https://matplotlib.org/</dc:title>
     </cc:Agent>
    </dc:creator>
   </cc:Work>
  </rdf:RDF>
 </metadata>
 <defs>
  <style type="text/css">*{stroke-linecap:butt;stroke-linejoin:round;}</style>
 </defs>
 <g id="figure_1">
  <g id="patch_1">
   <path d="M 0 345.6 
L 460.8 345.6 
L 460.8 0 
L 0 0 
z
" style="fill:none;"/>
  </g>
  <g id="axes_1">
   <g id="patch_2">
    <path d="M 57.6 307.584 
L 343.296 307.584 
L 343.296 41.472 
L 57.6 41.472 
z
" style="fill:none;"/>
   </g>
   <g id="matplotlib.axis_1">
    <g id="xtick_1">
     <g id="line2d_1">
      <defs>
       <path d="M 0 1.75 
L 0 -1.75 
" id="m064fd5bd49" style="stroke:#000000;stroke-width:0.8;"/>
      </defs>
      <g>
       <use style="stroke:#000000;stroke-width:0.8;" x="86.897706" xlink:href="#m064fd5bd49" y="307.584"/>
      </g>
     </g>
     <g id="text_1">
      <!-- $\mathdefault{10^{-5}}$ -->
      <g transform="translate(74.027706 326.11025)">
       <text>
        <tspan style="font-family:Arial;font-size:13px;font-style:regular;font-weight:regular;" x="0 7.22998" y="-0.5195000000000007">10</tspan>
        <tspan style="font-family:Arial;font-size:9.1px;font-style:regular;font-weight:regular;" x="14.686466 20.000723" y="-9.5796875">−5</tspan>
       </text>
      </g>
     </g>
    </g>
    <g id="xtick_2">
     <g id="line2d_2">
      <g>
       <use style="stroke:#000000;stroke-width:0.8;" x="158.321706" xlink:href="#m064fd5bd49" y="307.584"/>
      </g>
     </g>
     <g id="text_2">
      <!-- $\mathdefault{10^{-4}}$ -->
      <g transform="translate(145.451706 326.11025)">
       <text>
        <tspan style="font-family:Arial;font-size:13px;font-style:regular;font-weight:regular;" x="0 7.22998" y="-0.42106250000000145">10</tspan>
        <tspan style="font-family:Arial;font-size:9.1px;font-style:regular;font-weight:regular;" x="14.686466 20.000723" y="-9.481250000000001">−4</tspan>
       </text>
      </g>
     </g>
    </g>
    <g id="xtick_3">
     <g id="line2d_3">
      <g>
       <use style="stroke:#000000;stroke-width:0.8;" x="229.745706" xlink:href="#m064fd5bd49" y="307.584"/>
      </g>
     </g>
     <g id="text_3">
      <!-- $\mathdefault{10^{-3}}$ -->
      <g transform="translate(216.875706 326.24025)">
       <text>
        <tspan style="font-family:Arial;font-size:13px;font-style:regular;font-weight:regular;" x="0 7.22998" y="-0.39918750000000003">10</tspan>
        <tspan style="font-family:Arial;font-size:9.1px;font-style:regular;font-weight:regular;" x="14.686466 20.000723" y="-9.459375">−3</tspan>
       </text>
      </g>
     </g>
    </g>
    <g id="xtick_4">
     <g id="line2d_4">
      <g>
       <use style="stroke:#000000;stroke-width:0.8;" x="301.169706" xlink:href="#m064fd5bd49" y="307.584"/>
      </g>
     </g>
     <g id="text_4">
      <!-- $\mathdefault{10^{-2}}$ -->
      <g transform="translate(288.299706 326.24025)">
       <text>
        <tspan style="font-family:Arial;font-size:13px;font-style:regular;font-weight:regular;" x="0 7.22998" y="-0.39918750000000003">10</tspan>
        <tspan style="font-family:Arial;font-size:9.1px;font-style:regular;font-weight:regular;" x="14.686466 20.000723" y="-9.459375">−2</tspan>
       </text>
      </g>
     </g>
    </g>
    <g id="xtick_5">
     <g id="line2d_5">
      <defs>
       <path d="M 0 1 
L 0 -1 
" id="mc84680a2c8" style="stroke:#000000;stroke-width:0.6;"/>
      </defs>
      <g>
       <use style="stroke:#000000;stroke-width:0.6;" x="58.475239" xlink:href="#mc84680a2c8" y="307.584"/>
      </g>
     </g>
    </g>
    <g id="xtick_6">
     <g id="line2d_6">
      <g>
       <use style="stroke:#000000;stroke-width:0.6;" x="65.39694" xlink:href="#mc84680a2c8" y="307.584"/>
      </g>
     </g>
    </g>
    <g id="xtick_7">
     <g id="line2d_7">
      <g>
       <use style="stroke:#000000;stroke-width:0.6;" x="71.052381" xlink:href="#mc84680a2c8" y="307.584"/>
      </g>
     </g>
    </g>
    <g id="xtick_8">
     <g id="line2d_8">
      <g>
       <use style="stroke:#000000;stroke-width:0.6;" x="75.833988" xlink:href="#mc84680a2c8" y="307.584"/>
      </g>
     </g>
    </g>
    <g id="xtick_9">
     <g id="line2d_9">
      <g>
       <use style="stroke:#000000;stroke-width:0.6;" x="79.976005" xlink:href="#mc84680a2c8" y="307.584"/>
      </g>
     </g>
    </g>
    <g id="xtick_10">
     <g id="line2d_10">
      <g>
       <use style="stroke:#000000;stroke-width:0.6;" x="83.629523" xlink:href="#mc84680a2c8" y="307.584"/>
      </g>
     </g>
    </g>
    <g id="xtick_11">
     <g id="line2d_11">
      <g>
       <use style="stroke:#000000;stroke-width:0.6;" x="108.398472" xlink:href="#mc84680a2c8" y="307.584"/>
      </g>
     </g>
    </g>
    <g id="xtick_12">
     <g id="line2d_12">
      <g>
       <use style="stroke:#000000;stroke-width:0.6;" x="120.975615" xlink:href="#mc84680a2c8" y="307.584"/>
      </g>
     </g>
    </g>
    <g id="xtick_13">
     <g id="line2d_13">
      <g>
       <use style="stroke:#000000;stroke-width:0.6;" x="129.899239" xlink:href="#mc84680a2c8" y="307.584"/>
      </g>
     </g>
    </g>
    <g id="xtick_14">
     <g id="line2d_14">
      <g>
       <use style="stroke:#000000;stroke-width:0.6;" x="136.82094" xlink:href="#mc84680a2c8" y="307.584"/>
      </g>
     </g>
    </g>
    <g id="xtick_15">
     <g id="line2d_15">
      <g>
       <use style="stroke:#000000;stroke-width:0.6;" x="142.476381" xlink:href="#mc84680a2c8" y="307.584"/>
      </g>
     </g>
    </g>
    <g id="xtick_16">
     <g id="line2d_16">
      <g>
       <use style="stroke:#000000;stroke-width:0.6;" x="147.257988" xlink:href="#mc84680a2c8" y="307.584"/>
      </g>
     </g>
    </g>
    <g id="xtick_17">
     <g id="line2d_17">
      <g>
       <use style="stroke:#000000;stroke-width:0.6;" x="151.400005" xlink:href="#mc84680a2c8" y="307.584"/>
      </g>
     </g>
    </g>
    <g id="xtick_18">
     <g id="line2d_18">
      <g>
       <use style="stroke:#000000;stroke-width:0.6;" x="155.053523" xlink:href="#mc84680a2c8" y="307.584"/>
      </g>
     </g>
    </g>
    <g id="xtick_19">
     <g id="line2d_19">
      <g>
       <use style="stroke:#000000;stroke-width:0.6;" x="179.822472" xlink:href="#mc84680a2c8" y="307.584"/>
      </g>
     </g>
    </g>
    <g id="xtick_20">
     <g id="line2d_20">
      <g>
       <use style="stroke:#000000;stroke-width:0.6;" x="192.399615" xlink:href="#mc84680a2c8" y="307.584"/>
      </g>
     </g>
    </g>
    <g id="xtick_21">
     <g id="line2d_21">
      <g>
       <use style="stroke:#000000;stroke-width:0.6;" x="201.323239" xlink:href="#mc84680a2c8" y="307.584"/>
      </g>
     </g>
    </g>
    <g id="xtick_22">
     <g id="line2d_22">
      <g>
       <use style="stroke:#000000;stroke-width:0.6;" x="208.24494" xlink:href="#mc84680a2c8" y="307.584"/>
      </g>
     </g>
    </g>
    <g id="xtick_23">
     <g id="line2d_23">
      <g>
       <use style="stroke:#000000;stroke-width:0.6;" x="213.900381" xlink:href="#mc84680a2c8" y="307.584"/>
      </g>
     </g>
    </g>
    <g id="xtick_24">
     <g id="line2d_24">
      <g>
       <use style="stroke:#000000;stroke-width:0.6;" x="218.681988" xlink:href="#mc84680a2c8" y="307.584"/>
      </g>
     </g>
    </g>
    <g id="xtick_25">
     <g id="line2d_25">
      <g>
       <use style="stroke:#000000;stroke-width:0.6;" x="222.824005" xlink:href="#mc84680a2c8" y="307.584"/>
      </g>
     </g>
    </g>
    <g id="xtick_26">
     <g id="line2d_26">
      <g>
       <use style="stroke:#000000;stroke-width:0.6;" x="226.477523" xlink:href="#mc84680a2c8" y="307.584"/>
      </g>
     </g>
    </g>
    <g id="xtick_27">
     <g id="line2d_27">
      <g>
       <use style="stroke:#000000;stroke-width:0.6;" x="251.246472" xlink:href="#mc84680a2c8" y="307.584"/>
      </g>
     </g>
    </g>
    <g id="xtick_28">
     <g id="line2d_28">
      <g>
       <use style="stroke:#000000;stroke-width:0.6;" x="263.823615" xlink:href="#mc84680a2c8" y="307.584"/>
      </g>
     </g>
    </g>
    <g id="xtick_29">
     <g id="line2d_29">
      <g>
       <use style="stroke:#000000;stroke-width:0.6;" x="272.747239" xlink:href="#mc84680a2c8" y="307.584"/>
      </g>
     </g>
    </g>
    <g id="xtick_30">
     <g id="line2d_30">
      <g>
       <use style="stroke:#000000;stroke-width:0.6;" x="279.66894" xlink:href="#mc84680a2c8" y="307.584"/>
      </g>
     </g>
    </g>
    <g id="xtick_31">
     <g id="line2d_31">
      <g>
       <use style="stroke:#000000;stroke-width:0.6;" x="285.324381" xlink:href="#mc84680a2c8" y="307.584"/>
      </g>
     </g>
    </g>
    <g id="xtick_32">
     <g id="line2d_32">
      <g>
       <use style="stroke:#000000;stroke-width:0.6;" x="290.105988" xlink:href="#mc84680a2c8" y="307.584"/>
      </g>
     </g>
    </g>
    <g id="xtick_33">
     <g id="line2d_33">
      <g>
       <use style="stroke:#000000;stroke-width:0.6;" x="294.248005" xlink:href="#mc84680a2c8" y="307.584"/>
      </g>
     </g>
    </g>
    <g id="xtick_34">
     <g id="line2d_34">
      <g>
       <use style="stroke:#000000;stroke-width:0.6;" x="297.901523" xlink:href="#mc84680a2c8" y="307.584"/>
      </g>
     </g>
    </g>
    <g id="xtick_35">
     <g id="line2d_35">
      <g>
       <use style="stroke:#000000;stroke-width:0.6;" x="322.670472" xlink:href="#mc84680a2c8" y="307.584"/>
      </g>
     </g>
    </g>
    <g id="xtick_36">
     <g id="line2d_36">
      <g>
       <use style="stroke:#000000;stroke-width:0.6;" x="335.247615" xlink:href="#mc84680a2c8" y="307.584"/>
      </g>
     </g>
    </g>
    <g id="text_5">
     <text style="font-family:Arial;font-size:13px;font-stretch:normal;font-style:normal;font-weight:normal;text-anchor:middle;" transform="rotate(-0, 200.448, 342.129156)" x="200.448" y="342.129156">Kd2</text>
    </g>
   </g>
   <g id="matplotlib.axis_2">
    <g id="ytick_1">
     <g id="line2d_37">
      <defs>
       <path d="M 1.75 0 
L -1.75 -0 
" id="mf27e1b511e" style="stroke:#000000;stroke-width:0.8;"/>
      </defs>
      <g>
       <use style="stroke:#000000;stroke-width:0.8;" x="57.6" xlink:href="#mf27e1b511e" y="249.372385"/>
      </g>
     </g>
     <g id="text_6">
      <!-- $\mathdefault{10^{2}}$ -->
      <g transform="translate(31.94 256.07551)">
       <text>
        <tspan style="font-family:Arial;font-size:13px;font-style:regular;font-weight:regular;" x="0 7.22998" y="-0.39918750000000003">10</tspan>
        <tspan style="font-family:Arial;font-size:9.1px;font-style:regular;font-weight:regular;" x="14.686466" y="-9.459375">2</tspan>
       </text>
      </g>
     </g>
    </g>
    <g id="ytick_2">
     <g id="line2d_38">
      <g>
       <use style="stroke:#000000;stroke-width:0.8;" x="57.6" xlink:href="#mf27e1b511e" y="182.844385"/>
      </g>
     </g>
     <g id="text_7">
      <!-- $\mathdefault{10^{3}}$ -->
      <g transform="translate(31.94 189.54751)">
       <text>
        <tspan style="font-family:Arial;font-size:13px;font-style:regular;font-weight:regular;" x="0 7.22998" y="-0.39918750000000003">10</tspan>
        <tspan style="font-family:Arial;font-size:9.1px;font-style:regular;font-weight:regular;" x="14.686466" y="-9.459375">3</tspan>
       </text>
      </g>
     </g>
    </g>
    <g id="ytick_3">
     <g id="line2d_39">
      <g>
       <use style="stroke:#000000;stroke-width:0.8;" x="57.6" xlink:href="#mf27e1b511e" y="116.316385"/>
      </g>
     </g>
     <g id="text_8">
      <!-- $\mathdefault{10^{4}}$ -->
      <g transform="translate(31.94 122.95451)">
       <text>
        <tspan style="font-family:Arial;font-size:13px;font-style:regular;font-weight:regular;" x="0 7.22998" y="-0.42106250000000145">10</tspan>
        <tspan style="font-family:Arial;font-size:9.1px;font-style:regular;font-weight:regular;" x="14.686466" y="-9.481250000000001">4</tspan>
       </text>
      </g>
     </g>
    </g>
    <g id="ytick_4">
     <g id="line2d_40">
      <g>
       <use style="stroke:#000000;stroke-width:0.8;" x="57.6" xlink:href="#mf27e1b511e" y="49.788385"/>
      </g>
     </g>
     <g id="text_9">
      <!-- $\mathdefault{10^{5}}$ -->
      <g transform="translate(31.94 56.42651)">
       <text>
        <tspan style="font-family:Arial;font-size:13px;font-style:regular;font-weight:regular;" x="0 7.22998" y="-0.5195000000000007">10</tspan>
        <tspan style="font-family:Arial;font-size:9.1px;font-style:regular;font-weight:regular;" x="14.686466" y="-9.5796875">5</tspan>
       </text>
      </g>
     </g>
    </g>
    <g id="ytick_5">
     <g id="line2d_41">
      <defs>
       <path d="M 1 0 
L -1 -0 
" id="ma03eb87eef" style="stroke:#000000;stroke-width:0.6;"/>
      </defs>
      <g>
       <use style="stroke:#000000;stroke-width:0.6;" x="57.6" xlink:href="#ma03eb87eef" y="295.873461"/>
      </g>
     </g>
    </g>
    <g id="ytick_6">
     <g id="line2d_42">
      <g>
       <use style="stroke:#000000;stroke-width:0.6;" x="57.6" xlink:href="#ma03eb87eef" y="284.158462"/>
      </g>
     </g>
    </g>
    <g id="ytick_7">
     <g id="line2d_43">
      <g>
       <use style="stroke:#000000;stroke-width:0.6;" x="57.6" xlink:href="#ma03eb87eef" y="275.846537"/>
      </g>
     </g>
    </g>
    <g id="ytick_8">
     <g id="line2d_44">
      <g>
       <use style="stroke:#000000;stroke-width:0.6;" x="57.6" xlink:href="#ma03eb87eef" y="269.399308"/>
      </g>
     </g>
    </g>
    <g id="ytick_9">
     <g id="line2d_45">
      <g>
       <use style="stroke:#000000;stroke-width:0.6;" x="57.6" xlink:href="#ma03eb87eef" y="264.131538"/>
      </g>
     </g>
    </g>
    <g id="ytick_10">
     <g id="line2d_46">
      <g>
       <use style="stroke:#000000;stroke-width:0.6;" x="57.6" xlink:href="#ma03eb87eef" y="259.677702"/>
      </g>
     </g>
    </g>
    <g id="ytick_11">
     <g id="line2d_47">
      <g>
       <use style="stroke:#000000;stroke-width:0.6;" x="57.6" xlink:href="#ma03eb87eef" y="255.819614"/>
      </g>
     </g>
    </g>
    <g id="ytick_12">
     <g id="line2d_48">
      <g>
       <use style="stroke:#000000;stroke-width:0.6;" x="57.6" xlink:href="#ma03eb87eef" y="252.416539"/>
      </g>
     </g>
    </g>
    <g id="ytick_13">
     <g id="line2d_49">
      <g>
       <use style="stroke:#000000;stroke-width:0.6;" x="57.6" xlink:href="#ma03eb87eef" y="229.345461"/>
      </g>
     </g>
    </g>
    <g id="ytick_14">
     <g id="line2d_50">
      <g>
       <use style="stroke:#000000;stroke-width:0.6;" x="57.6" xlink:href="#ma03eb87eef" y="217.630462"/>
      </g>
     </g>
    </g>
    <g id="ytick_15">
     <g id="line2d_51">
      <g>
       <use style="stroke:#000000;stroke-width:0.6;" x="57.6" xlink:href="#ma03eb87eef" y="209.318537"/>
      </g>
     </g>
    </g>
    <g id="ytick_16">
     <g id="line2d_52">
      <g>
       <use style="stroke:#000000;stroke-width:0.6;" x="57.6" xlink:href="#ma03eb87eef" y="202.871308"/>
      </g>
     </g>
    </g>
    <g id="ytick_17">
     <g id="line2d_53">
      <g>
       <use style="stroke:#000000;stroke-width:0.6;" x="57.6" xlink:href="#ma03eb87eef" y="197.603538"/>
      </g>
     </g>
    </g>
    <g id="ytick_18">
     <g id="line2d_54">
      <g>
       <use style="stroke:#000000;stroke-width:0.6;" x="57.6" xlink:href="#ma03eb87eef" y="193.149702"/>
      </g>
     </g>
    </g>
    <g id="ytick_19">
     <g id="line2d_55">
      <g>
       <use style="stroke:#000000;stroke-width:0.6;" x="57.6" xlink:href="#ma03eb87eef" y="189.291614"/>
      </g>
     </g>
    </g>
    <g id="ytick_20">
     <g id="line2d_56">
      <g>
       <use style="stroke:#000000;stroke-width:0.6;" x="57.6" xlink:href="#ma03eb87eef" y="185.888539"/>
      </g>
     </g>
    </g>
    <g id="ytick_21">
     <g id="line2d_57">
      <g>
       <use style="stroke:#000000;stroke-width:0.6;" x="57.6" xlink:href="#ma03eb87eef" y="162.817461"/>
      </g>
     </g>
    </g>
    <g id="ytick_22">
     <g id="line2d_58">
      <g>
       <use style="stroke:#000000;stroke-width:0.6;" x="57.6" xlink:href="#ma03eb87eef" y="151.102462"/>
      </g>
     </g>
    </g>
    <g id="ytick_23">
     <g id="line2d_59">
      <g>
       <use style="stroke:#000000;stroke-width:0.6;" x="57.6" xlink:href="#ma03eb87eef" y="142.790537"/>
      </g>
     </g>
    </g>
    <g id="ytick_24">
     <g id="line2d_60">
      <g>
       <use style="stroke:#000000;stroke-width:0.6;" x="57.6" xlink:href="#ma03eb87eef" y="136.343308"/>
      </g>
     </g>
    </g>
    <g id="ytick_25">
     <g id="line2d_61">
      <g>
       <use style="stroke:#000000;stroke-width:0.6;" x="57.6" xlink:href="#ma03eb87eef" y="131.075538"/>
      </g>
     </g>
    </g>
    <g id="ytick_26">
     <g id="line2d_62">
      <g>
       <use style="stroke:#000000;stroke-width:0.6;" x="57.6" xlink:href="#ma03eb87eef" y="126.621702"/>
      </g>
     </g>
    </g>
    <g id="ytick_27">
     <g id="line2d_63">
      <g>
       <use style="stroke:#000000;stroke-width:0.6;" x="57.6" xlink:href="#ma03eb87eef" y="122.763614"/>
      </g>
     </g>
    </g>
    <g id="ytick_28">
     <g id="line2d_64">
      <g>
       <use style="stroke:#000000;stroke-width:0.6;" x="57.6" xlink:href="#ma03eb87eef" y="119.360539"/>
      </g>
     </g>
    </g>
    <g id="ytick_29">
     <g id="line2d_65">
      <g>
       <use style="stroke:#000000;stroke-width:0.6;" x="57.6" xlink:href="#ma03eb87eef" y="96.289461"/>
      </g>
     </g>
    </g>
    <g id="ytick_30">
     <g id="line2d_66">
      <g>
       <use style="stroke:#000000;stroke-width:0.6;" x="57.6" xlink:href="#ma03eb87eef" y="84.574462"/>
      </g>
     </g>
    </g>
    <g id="ytick_31">
     <g id="line2d_67">
      <g>
       <use style="stroke:#000000;stroke-width:0.6;" x="57.6" xlink:href="#ma03eb87eef" y="76.262537"/>
      </g>
     </g>
    </g>
    <g id="ytick_32">
     <g id="line2d_68">
      <g>
       <use style="stroke:#000000;stroke-width:0.6;" x="57.6" xlink:href="#ma03eb87eef" y="69.815308"/>
      </g>
     </g>
    </g>
    <g id="ytick_33">
     <g id="line2d_69">
      <g>
       <use style="stroke:#000000;stroke-width:0.6;" x="57.6" xlink:href="#ma03eb87eef" y="64.547538"/>
      </g>
     </g>
    </g>
    <g id="ytick_34">
     <g id="line2d_70">
      <g>
       <use style="stroke:#000000;stroke-width:0.6;" x="57.6" xlink:href="#ma03eb87eef" y="60.093702"/>
      </g>
     </g>
    </g>
    <g id="ytick_35">
     <g id="line2d_71">
      <g>
       <use style="stroke:#000000;stroke-width:0.6;" x="57.6" xlink:href="#ma03eb87eef" y="56.235614"/>
      </g>
     </g>
    </g>
    <g id="ytick_36">
     <g id="line2d_72">
      <g>
       <use style="stroke:#000000;stroke-width:0.6;" x="57.6" xlink:href="#ma03eb87eef" y="52.832539"/>
      </g>
     </g>
    </g>
    <g id="text_10">
     <text style="font-family:Arial;font-size:13px;font-stretch:normal;font-style:normal;font-weight:normal;text-anchor:middle;" transform="rotate(-90, 25.35625, 174.528)" x="25.35625" y="174.528">Alpha</text>
    </g>
   </g>
   <g id="LineCollection_1"/>
   <g id="LineCollection_2">
    <path clip-path="url(#p20086a0a64)" d="M 343.296 49.689954 
L 340.730948 52.333714 
L 337.465469 55.12032 
L 334.900119 57.764571 
L 331.634939 60.550558 
L 329.069194 63.195429 
L 325.804408 65.980631 
L 323.23814 68.626286 
L 319.973878 71.410492 
L 317.406907 74.057143 
L 314.143347 76.84007 
L 311.575427 79.488 
L 308.312816 82.269274 
L 305.743604 84.918857 
L 302.482286 87.697979 
L 299.911305 90.349714 
L 296.651755 93.126015 
L 294.078339 95.780571 
L 290.821224 98.553145 
L 288.244439 101.211429 
L 284.990694 103.979047 
L 282.409231 106.642286 
L 279.160163 109.403275 
L 276.572187 112.073143 
L 273.329633 114.825219 
L 270.732571 117.504 
L 267.499102 120.24404 
L 264.889357 122.934857 
L 261.668571 125.658596 
L 259.041125 128.365714 
L 255.838041 131.067339 
L 253.185915 133.796571 
L 250.00751 136.468193 
L 247.321049 139.227429 
L 244.17698 141.858397 
L 241.442882 144.658286 
L 238.346449 147.23434 
L 235.5465 150.089143 
L 232.515918 152.591371 
L 229.625312 155.52 
L 226.685388 157.923615 
L 223.670532 160.950857 
L 220.854857 163.223824 
L 217.670489 166.381714 
L 215.024327 168.483275 
L 211.609679 171.812571 
L 209.193796 173.691765 
L 205.46743 177.243429 
L 203.363265 178.837702 
L 199.215933 182.674286 
L 197.532735 183.908308 
L 192.817231 188.105143 
L 191.702204 188.889879 
L 186.218471 193.536 
L 185.871673 193.768088 
L 180.041143 198.038073 
L 179.000555 198.966857 
L 174.210612 202.024656 
L 171.204175 204.397714 
L 168.380082 206.012862 
L 162.830157 209.828571 
L 162.549551 209.970413 
L 156.71902 211.181182 
L 155.494346 209.828571 
L 156.71902 208.266536 
L 159.822229 204.397714 
L 162.549551 201.543074 
L 165.132416 198.966857 
L 168.380082 195.843769 
L 170.959312 193.536 
L 174.210612 190.509018 
L 177.044181 188.105143 
L 180.041143 185.330331 
L 183.244916 182.674286 
L 185.871673 180.221069 
L 189.483906 177.243429 
L 191.702204 175.138316 
L 195.719349 171.812571 
L 197.532735 170.058106 
L 201.929622 166.381714 
L 203.363265 164.966115 
L 208.104612 160.950857 
L 209.193796 159.853649 
L 214.240811 155.52 
L 215.024327 154.715692 
L 220.338443 150.089143 
L 220.854857 149.549788 
L 226.39976 144.658286 
L 226.685388 144.355307 
L 232.428013 139.227429 
L 232.515918 139.132895 
L 238.346449 133.932872 
L 238.527419 133.796571 
L 244.17698 128.741706 
L 244.669794 128.365714 
L 250.00751 123.511513 
L 250.754991 122.934857 
L 255.838041 118.248606 
L 256.794111 117.504 
L 261.668571 112.958221 
L 262.795884 112.073143 
L 267.499102 107.64475 
L 268.767251 106.642286 
L 273.329633 102.311892 
L 274.713777 101.211429 
L 279.160163 96.962772 
L 280.639953 95.780571 
L 284.990694 91.600026 
L 286.549419 90.349714 
L 290.821224 86.225882 
L 292.445143 84.918857 
L 296.651755 80.842212 
L 298.32955 79.488 
L 302.482286 75.450593 
L 304.204626 74.057143 
L 308.312816 70.052344 
L 310.072001 68.626286 
L 314.143347 64.648574 
L 315.933017 63.195429 
L 319.973878 59.240209 
L 321.788778 57.764571 
L 325.804408 53.828024 
L 327.640195 52.333714 
L 331.634939 48.412658 
L 333.488016 46.902857 
L 337.465469 42.994655 
L 339.332865 41.472 
" style="fill:none;stroke:#482878;stroke-width:1.5;"/>
   </g>
   <g id="LineCollection_3">
    <path clip-path="url(#p20086a0a64)" d="M 343.296 62.601638 
L 342.757265 63.195429 
L 331.634939 73.452272 
L 331.085779 74.057143 
L 319.973878 84.297834 
L 319.409494 84.918857 
L 308.312816 95.135994 
L 307.726172 95.780571 
L 296.651755 105.963341 
L 296.032505 106.642286 
L 284.990694 116.774874 
L 284.323561 117.504 
L 273.329633 127.563253 
L 272.591924 128.365714 
L 261.668571 138.317686 
L 260.8263 139.227429 
L 255.838041 143.67747 
L 254.925609 144.658286 
L 250.00751 149.022307 
L 249.009188 150.089143 
L 244.17698 154.349044 
L 243.073227 155.52 
L 238.346449 159.653879 
L 237.112876 160.950857 
L 232.515918 164.932245 
L 231.121903 166.381714 
L 226.685388 170.178688 
L 225.092246 171.812571 
L 220.854857 175.386737 
L 219.01336 177.243429 
L 215.024327 180.548789 
L 212.87132 182.674286 
L 209.193796 185.656011 
L 206.647521 188.105143 
L 203.363265 190.698291 
L 200.31679 193.536 
L 197.532735 195.664253 
L 193.844574 198.966857 
L 191.702204 200.541367 
L 187.182656 204.397714 
L 185.871673 205.3162 
L 180.041143 209.974822 
L 173.167615 215.259429 
L 168.380082 218.593664 
L 165.676995 220.690286 
L 162.549551 222.672048 
L 156.71902 226.594315 
L 148.590542 231.552 
L 138.08047 236.982857 
L 133.396898 238.854606 
L 127.566367 240.924334 
L 121.735837 242.595343 
L 115.905306 242.831007 
L 114.378331 242.413714 
L 112.149559 236.982857 
L 115.078481 231.552 
L 115.905306 230.527625 
L 121.735837 224.007519 
L 127.566367 218.302779 
L 131.00977 215.259429 
L 133.396898 212.985851 
L 137.160494 209.828571 
L 139.227429 207.883262 
L 143.485526 204.397714 
L 145.057959 202.911125 
L 149.904199 198.966857 
L 150.88849 198.02206 
L 162.869858 188.105143 
L 174.210612 178.48286 
L 175.885645 177.243429 
L 180.041143 173.522088 
L 182.30177 171.812571 
L 185.871673 168.532581 
L 188.653381 166.381714 
L 191.702204 163.511142 
L 194.942162 160.950857 
L 197.532735 158.455534 
L 201.171766 155.52 
L 203.363265 153.364629 
L 207.347004 150.089143 
L 209.193796 148.238383 
L 213.473248 144.658286 
L 215.024327 143.077712 
L 219.556006 139.227429 
L 220.854857 137.884302 
L 225.60064 133.796571 
L 226.685388 132.660399 
L 231.61218 128.365714 
L 232.515918 127.408599 
L 238.346449 122.131667 
L 244.17698 116.832391 
L 255.41225 106.642286 
L 255.838041 106.177445 
L 267.499102 95.463164 
L 284.834284 79.488 
L 284.990694 79.314164 
L 308.312816 57.693507 
L 325.776796 41.472 
L 325.776796 41.472 
" style="fill:none;stroke:#3e4989;stroke-width:1.5;"/>
   </g>
   <g id="LineCollection_4">
    <path clip-path="url(#p20086a0a64)" d="M 343.296 74.417685 
L 331.634939 85.266645 
L 314.550071 101.211429 
L 314.143347 101.528393 
L 296.990315 117.504 
L 296.651755 117.766826 
L 279.377777 133.796571 
L 279.160163 133.96436 
L 261.668571 150.0903 
L 237.908037 171.812571 
L 226.685388 181.803672 
L 225.849772 182.674286 
L 220.854857 186.973568 
L 219.74788 188.105143 
L 215.024327 192.09319 
L 213.57988 193.536 
L 209.193796 197.153896 
L 207.327237 198.966857 
L 203.363265 202.146031 
L 200.96515 204.397714 
L 197.532735 207.059009 
L 194.459945 209.828571 
L 191.702204 211.881488 
L 187.765136 215.259429 
L 185.871673 216.601665 
L 180.041143 221.20771 
L 173.663102 226.121143 
L 168.380082 229.896345 
L 166.28415 231.552 
L 162.549551 233.994596 
L 158.339754 236.982857 
L 156.71902 237.936747 
L 149.772412 242.413714 
L 139.227429 248.397037 
L 129.584221 253.275429 
L 121.735837 256.527212 
L 115.905306 258.796251 
L 110.074776 260.532911 
L 104.244245 262.001573 
L 98.413714 263.155818 
L 92.583184 263.873281 
L 86.752653 263.85132 
L 80.922122 262.357741 
L 76.237591 258.706286 
L 76.629928 253.275429 
L 79.751152 247.844571 
L 80.922122 246.392978 
L 84.384893 242.413714 
L 86.752653 239.939046 
L 92.583184 234.368285 
L 104.244245 224.29866 
L 108.809244 220.690286 
L 110.074776 219.543087 
L 122.361113 209.828571 
L 127.566367 205.576377 
L 129.246715 204.397714 
L 133.396898 200.906218 
L 136.100633 198.966857 
L 139.227429 196.246379 
L 142.901097 193.536 
L 145.057959 191.590495 
L 149.633841 188.105143 
L 150.88849 186.930629 
L 156.71902 182.257944 
L 169.463372 171.812571 
L 174.210612 167.650759 
L 175.93865 166.381714 
L 180.041143 162.679731 
L 182.332018 160.950857 
L 185.871673 157.670651 
L 188.650357 155.52 
L 191.702204 152.622648 
L 194.900982 150.089143 
L 197.532735 147.535792 
L 201.091266 144.658286 
L 203.363265 142.41105 
L 207.22837 139.227429 
L 209.193796 137.25015 
L 213.319044 133.796571 
L 215.024327 132.055407 
L 219.369509 128.365714 
L 220.854857 126.829528 
L 225.385395 122.934857 
L 226.685388 121.575442 
L 231.371718 117.504 
L 232.515918 116.296138 
L 237.332893 112.073143 
L 238.346449 110.994549 
L 243.272767 106.642286 
L 244.17698 105.673462 
L 249.194662 101.211429 
L 250.00751 100.335462 
L 255.838041 94.982898 
L 266.878942 84.918857 
L 267.499102 84.242231 
L 278.620621 74.057143 
L 279.160163 73.465376 
L 290.337349 63.195429 
L 290.821224 62.662773 
L 302.036785 52.333714 
L 302.482286 51.842058 
L 313.724266 41.472 
L 313.724266 41.472 
" style="fill:none;stroke:#31688e;stroke-width:1.5;"/>
   </g>
   <g id="LineCollection_5">
    <path clip-path="url(#p20086a0a64)" d="M 57.6 243.103594 
L 58.625899 242.413714 
L 63.430531 238.863144 
L 66.242409 236.982857 
L 69.261061 234.683477 
L 73.870718 231.552 
L 75.091592 230.581104 
L 80.922122 226.491443 
L 81.516358 226.121143 
L 86.752653 222.267774 
L 89.200675 220.690286 
L 92.583184 218.070879 
L 96.768582 215.259429 
L 98.413714 213.913367 
L 104.213189 209.828571 
L 104.244245 209.801651 
L 110.074776 205.427115 
L 111.674374 204.397714 
L 115.905306 201.048692 
L 118.989508 198.966857 
L 121.735837 196.673283 
L 126.160679 193.536 
L 127.566367 192.297942 
L 133.19391 188.105143 
L 133.396898 187.916805 
L 139.227429 183.310972 
L 140.179763 182.674286 
L 145.057959 178.631547 
L 147.047322 177.243429 
L 150.88849 173.92003 
L 153.787711 171.812571 
L 156.71902 169.171801 
L 160.412048 166.381714 
L 162.549551 164.382476 
L 166.931382 160.950857 
L 168.380082 159.548379 
L 173.356528 155.52 
L 174.210612 154.66686 
L 179.697896 150.089143 
L 180.041143 149.736468 
L 185.871673 144.732203 
L 185.974317 144.658286 
L 191.702204 139.602843 
L 192.212443 139.227429 
L 197.532735 134.438277 
L 198.388574 133.796571 
L 203.363265 129.240772 
L 204.511226 128.365714 
L 209.193796 124.012922 
L 210.587984 122.934857 
L 215.024327 118.757513 
L 216.625547 117.504 
L 220.854857 113.477394 
L 222.629777 112.073143 
L 226.685388 108.175367 
L 228.605766 106.642286 
L 232.515918 102.854111 
L 234.557907 101.211429 
L 238.346449 97.516123 
L 240.489968 95.780571 
L 244.17698 92.163686 
L 246.405162 90.349714 
L 250.00751 86.798851 
L 252.306221 84.918857 
L 255.838041 81.423438 
L 258.195454 79.488 
L 261.668571 76.039041 
L 264.074808 74.057143 
L 267.499102 70.647044 
L 269.94592 68.626286 
L 273.329633 65.248642 
L 275.810166 63.195429 
L 279.160163 59.844855 
L 281.668695 57.764571 
L 284.990694 54.436549 
L 287.522465 52.333714 
L 290.821224 49.024465 
L 293.372283 46.902857 
L 296.651755 43.609223 
L 299.218815 41.472 
" style="fill:none;stroke:#26828e;stroke-width:1.5;"/>
    <path clip-path="url(#p20086a0a64)" d="M 343.296 89.054018 
L 342.092434 90.349714 
L 337.465469 94.477385 
L 336.254302 95.780571 
L 331.634939 99.899206 
L 330.41459 101.211429 
L 325.804408 105.319165 
L 324.572971 106.642286 
L 319.973878 110.73688 
L 318.729046 112.073143 
L 314.143347 116.15189 
L 312.882331 117.504 
L 308.312816 121.563642 
L 307.03224 122.934857 
L 302.482286 126.97147 
L 301.178062 128.365714 
L 296.651755 132.374577 
L 295.318933 133.796571 
L 290.821224 137.772004 
L 289.453801 139.227429 
L 284.990694 143.162602 
L 283.581383 144.658286 
L 279.160163 148.545 
L 277.700114 150.089143 
L 273.329633 153.917555 
L 271.808074 155.52 
L 267.499102 159.278315 
L 265.90291 160.950857 
L 261.668571 164.624957 
L 259.981719 166.381714 
L 255.838041 169.95473 
L 254.040913 171.812571 
L 250.00751 175.26439 
L 248.076034 177.243429 
L 244.17698 180.550128 
L 242.081512 182.674286 
L 238.346449 185.807499 
L 236.050347 188.105143 
L 232.515918 191.031351 
L 229.973678 193.536 
L 226.685388 196.215767 
L 223.840198 198.966857 
L 220.854857 201.354021 
L 217.635339 204.397714 
L 215.024327 206.438564 
L 211.34013 209.828571 
L 209.193796 211.461052 
L 204.929562 215.259429 
L 203.363265 216.412435 
L 198.370172 220.690286 
L 197.532735 221.283112 
L 191.702204 226.058272 
L 191.636467 226.121143 
L 185.871673 230.675195 
L 184.900094 231.552 
L 180.041143 235.174909 
L 177.895236 236.982857 
L 174.210612 239.548555 
L 170.521555 242.413714 
L 168.380082 243.788824 
L 162.628388 247.844571 
L 162.549551 247.890546 
L 156.71902 251.73146 
L 154.540286 253.275429 
L 150.88849 255.419638 
L 145.560617 258.706286 
L 145.057959 258.963279 
L 139.227429 262.213826 
L 135.867118 264.137143 
L 133.396898 265.311062 
L 127.566367 268.171437 
L 124.76595 269.568 
L 121.735837 270.823255 
L 115.905306 273.236212 
L 111.525202 274.998857 
L 110.074776 275.482717 
L 104.244245 277.410145 
L 98.413714 279.18925 
L 94.048688 280.429714 
L 92.583184 280.771385 
L 86.752653 282.022042 
L 80.922122 283.082275 
L 75.091592 283.942109 
L 69.261061 284.585253 
L 63.430531 284.986016 
L 57.6 285.106496 
" style="fill:none;stroke:#26828e;stroke-width:1.5;"/>
   </g>
   <g id="LineCollection_6">
    <path clip-path="url(#p20086a0a64)" d="M 57.6 222.875491 
L 61.609709 220.690286 
L 63.430531 219.447981 
L 69.261061 215.93071 
L 70.514694 215.259429 
L 75.091592 212.194196 
L 79.129186 209.828571 
L 80.922122 208.507008 
L 86.752653 204.768564 
L 87.412502 204.397714 
L 92.583184 200.753004 
L 95.519977 198.966857 
L 98.413714 196.752861 
L 103.315278 193.536 
L 104.244245 192.767471 
L 110.074776 188.626966 
L 110.928331 188.105143 
L 115.905306 184.290525 
L 118.38373 182.674286 
L 121.735837 179.933563 
L 125.616651 177.243429 
L 127.566367 175.549924 
L 132.656892 171.812571 
L 133.396898 171.132557 
L 139.227429 166.602454 
L 139.561506 166.381714 
L 145.057959 161.86576 
L 146.381302 160.950857 
L 150.88849 157.083607 
L 153.058457 155.52 
L 156.71902 152.253404 
L 159.611941 150.089143 
L 162.549551 147.373483 
L 166.058337 144.658286 
L 168.380082 142.443208 
L 172.4122 139.227429 
L 174.210612 137.462985 
L 178.686323 133.796571 
L 180.041143 132.434197 
L 184.891939 128.365714 
L 185.871673 127.359049 
L 191.038888 122.934857 
L 191.702204 122.240411 
L 197.13576 117.504 
L 197.532735 117.081603 
L 203.19003 112.073143 
L 203.363265 111.886225 
L 209.193796 106.654173 
L 209.209683 106.642286 
L 215.024327 101.354648 
L 215.213829 101.211429 
L 220.854857 96.03559 
L 221.189434 95.780571 
L 226.685388 90.699525 
L 227.141042 90.349714 
L 232.515918 85.34876 
L 233.072513 84.918857 
L 238.346449 79.985369 
L 238.987118 79.488 
L 244.17698 74.611198 
L 244.887618 74.057143 
L 250.00751 69.227862 
L 250.776341 68.626286 
L 255.838041 63.83677 
L 256.655239 63.195429 
L 261.668571 58.439133 
L 262.525952 57.764571 
L 267.499102 53.035993 
L 268.389851 52.333714 
L 273.329633 47.628234 
L 274.248082 46.902857 
L 279.160163 42.21661 
L 280.101602 41.472 
" style="fill:none;stroke:#1f9e89;stroke-width:1.5;"/>
    <path clip-path="url(#p20086a0a64)" d="M 343.296 109.339875 
L 340.629956 112.073143 
L 337.465469 114.761626 
L 334.788713 117.504 
L 331.634939 120.181501 
L 328.945245 122.934857 
L 325.804408 125.599117 
L 323.099087 128.365714 
L 319.973878 131.014013 
L 317.249679 133.796571 
L 314.143347 136.425632 
L 311.396339 139.227429 
L 308.312816 141.833309 
L 305.538239 144.658286 
L 302.482286 147.236245 
L 299.674378 150.089143 
L 296.651755 152.633484 
L 293.803535 155.52 
L 290.821224 158.02388 
L 287.924226 160.950857 
L 284.990694 163.406069 
L 282.034641 166.381714 
L 279.160163 168.778425 
L 276.132568 171.812571 
L 273.329633 174.139015 
L 270.215296 177.243429 
L 267.499102 179.485555 
L 264.279495 182.674286 
L 261.668571 184.815349 
L 258.32106 188.105143 
L 255.838041 190.125234 
L 252.334907 193.536 
L 250.00751 195.411519 
L 246.314712 198.966857 
L 244.17698 200.669924 
L 240.252558 204.397714 
L 238.346449 205.895532 
L 234.138474 209.828571 
L 232.515918 211.08274 
L 227.959792 215.259429 
L 226.685388 216.225241 
L 221.700271 220.690286 
L 220.854857 221.316034 
L 215.338854 226.121143 
L 215.024327 226.347466 
L 209.193796 231.288675 
L 208.929385 231.552 
L 203.363265 236.12599 
L 202.466586 236.982857 
L 197.532735 240.871744 
L 195.838246 242.413714 
L 191.702204 245.517 
L 188.992106 247.844571 
L 185.871673 250.053438 
L 181.854585 253.275429 
L 180.041143 254.473783 
L 174.318864 258.706286 
L 174.210612 258.772225 
L 168.380082 262.835522 
L 166.68779 264.137143 
L 162.549551 266.757815 
L 158.452341 269.568 
L 156.71902 270.546689 
L 150.88849 274.132851 
L 149.594671 274.998857 
L 145.057959 277.499717 
L 139.91157 280.429714 
L 139.227429 280.750404 
L 133.396898 283.714792 
L 129.221764 285.860571 
L 127.566367 286.561423 
L 121.735837 289.150898 
L 116.839199 291.291429 
L 115.905306 291.627727 
L 110.074776 293.819329 
L 104.244245 295.910197 
L 101.988294 296.722286 
L 98.413714 297.78157 
L 92.583184 299.460744 
L 86.752653 301.025377 
L 82.309992 302.153143 
L 80.922122 302.441755 
L 75.091592 303.621928 
L 69.261061 304.684722 
L 63.430531 305.63288 
L 57.6 306.469601 
" style="fill:none;stroke:#1f9e89;stroke-width:1.5;"/>
   </g>
   <g id="LineCollection_7">
    <path clip-path="url(#p20086a0a64)" d="M 57.6 199.999806 
L 59.68815 198.966857 
L 63.430531 196.586262 
L 68.874805 193.536 
L 69.261061 193.257328 
L 75.091592 189.563149 
L 77.721896 188.105143 
L 80.922122 185.837499 
L 86.073244 182.674286 
L 86.752653 182.141054 
L 92.583184 178.175862 
L 94.168144 177.243429 
L 98.413714 174.076672 
L 101.955152 171.812571 
L 104.244245 169.959929 
L 109.427488 166.381714 
L 110.074776 165.817062 
L 115.905306 161.474753 
L 116.728512 160.950857 
L 121.735837 156.956876 
L 123.86209 155.52 
L 127.566367 152.390509 
L 130.791433 150.089143 
L 133.396898 147.770914 
L 137.549551 144.658286 
L 139.227429 143.094341 
L 144.163348 139.227429 
L 145.057959 138.358216 
L 150.655069 133.796571 
L 150.88849 133.561257 
L 156.71902 128.623734 
L 157.08179 128.365714 
L 162.549551 123.584195 
L 163.437374 122.934857 
L 168.380082 118.500072 
L 169.709204 117.504 
L 174.210612 113.374104 
L 175.910229 112.073143 
L 180.041143 108.209438 
L 182.051436 106.642286 
L 185.871673 103.009455 
L 188.142162 101.211429 
L 191.702204 97.777651 
L 194.190349 95.780571 
L 197.532735 92.517479 
L 200.202741 90.349714 
L 203.363265 87.232283 
L 206.185064 84.918857 
L 209.193796 81.9252 
L 212.142165 79.488 
L 215.024327 76.599127 
L 218.078142 74.057143 
L 220.854857 71.256688 
L 223.996452 68.626286 
L 226.685388 65.900232 
L 229.900004 63.195429 
L 232.515918 60.531828 
L 235.791244 57.764571 
L 238.346449 55.153288 
L 241.672222 52.333714 
L 244.17698 49.76618 
L 247.544653 46.902857 
L 250.00751 44.371852 
L 253.409973 41.472 
" style="fill:none;stroke:#35b779;stroke-width:1.5;"/>
    <path clip-path="url(#p20086a0a64)" d="M 343.296 141.25947 
L 339.900447 144.658286 
L 337.465469 146.67794 
L 334.054288 150.089143 
L 331.634939 152.093864 
L 328.20488 155.52 
L 325.804408 157.506723 
L 322.35154 160.950857 
L 319.973878 162.915892 
L 316.493445 166.381714 
L 314.143347 168.320623 
L 310.629593 171.812571 
L 308.312816 173.72002 
L 304.758767 177.243429 
L 302.482286 179.113011 
L 298.879486 182.674286 
L 296.651755 184.498315 
L 292.989946 188.105143 
L 290.821224 189.874408 
L 287.087945 193.536 
L 284.990694 195.239475 
L 281.170784 198.966857 
L 279.160163 200.59137 
L 275.235153 204.397714 
L 273.329633 205.927559 
L 269.276974 209.828571 
L 267.499102 211.245065 
L 263.291204 215.259429 
L 261.668571 216.540408 
L 257.271576 220.690286 
L 255.838041 221.809549 
L 251.210257 226.121143 
L 250.00751 227.047836 
L 245.097392 231.552 
L 244.17698 232.249958 
L 238.92048 236.982857 
L 238.346449 237.409918 
L 232.663511 242.413714 
L 232.515918 242.521035 
L 226.685388 247.54861 
L 226.394669 247.844571 
L 220.854857 252.495263 
L 220.062479 253.275429 
L 215.024327 257.363184 
L 213.60496 258.706286 
L 209.193796 262.143417 
L 206.985202 264.137143 
L 203.363265 266.827179 
L 200.152474 269.568 
L 197.532735 271.406241 
L 193.035273 274.998857 
L 191.702204 275.873326 
L 185.871673 280.201437 
L 185.603533 280.429714 
L 180.041143 284.309099 
L 178.037439 285.860571 
L 174.210612 288.286038 
L 169.868084 291.291429 
L 168.380082 292.133609 
L 162.549551 295.76822 
L 161.152883 296.722286 
L 156.71902 299.194503 
L 151.639371 302.153143 
L 150.88849 302.509847 
L 145.057959 305.540356 
L 141.228928 307.584 
" style="fill:none;stroke:#35b779;stroke-width:1.5;"/>
   </g>
   <g id="LineCollection_8">
    <path clip-path="url(#p20086a0a64)" d="M 343.296 217.714956 
L 340.353067 220.690286 
L 337.465469 223.108391 
L 334.477079 226.121143 
L 331.634939 228.494184 
L 328.591468 231.552 
L 325.804408 233.870795 
L 322.694143 236.982857 
L 319.973878 239.23639 
L 316.782531 242.413714 
L 314.143347 244.588779 
L 310.853452 247.844571 
L 308.312816 249.925361 
L 304.902966 253.275429 
L 302.482286 255.243054 
L 298.926158 258.706286 
L 296.651755 260.538216 
L 292.916855 264.137143 
L 290.821224 265.806571 
L 286.86725 269.568 
L 284.990694 271.043119 
L 280.767371 274.998857 
L 279.160163 276.242051 
L 274.604343 280.429714 
L 273.329633 281.396676 
L 268.361315 285.860571 
L 267.499102 286.499358 
L 262.015885 291.291429 
L 261.668571 291.541477 
L 255.838041 296.499131 
L 255.615967 296.722286 
L 250.00751 301.353987 
L 249.178783 302.153143 
L 244.17698 306.111651 
L 242.5719 307.584 
" style="fill:none;stroke:#6ece58;stroke-width:1.5;"/>
    <path clip-path="url(#p20086a0a64)" d="M 57.6 167.617235 
L 59.938054 166.381714 
L 63.430531 163.999462 
L 68.553708 160.950857 
L 69.261061 160.4086 
L 75.091592 156.526539 
L 76.832318 155.52 
L 80.922122 152.503761 
L 84.726895 150.089143 
L 86.752653 148.454174 
L 92.250655 144.658286 
L 92.583184 144.367187 
L 98.413714 139.998841 
L 99.619408 139.227429 
L 104.244245 135.51119 
L 106.758401 133.796571 
L 110.074776 130.965401 
L 113.675652 128.365714 
L 115.905306 126.357222 
L 120.411462 122.934857 
L 121.735837 121.683792 
L 126.997577 117.504 
L 127.566367 116.943719 
L 133.396898 112.122542 
L 133.467707 112.073143 
L 139.227429 107.123183 
L 139.895297 106.642286 
L 145.057959 102.074446 
L 146.224074 101.211429 
L 150.88849 96.979405 
L 152.470406 95.780571 
L 156.71902 91.841582 
L 158.647855 90.349714 
L 162.549551 86.66476 
L 164.767712 84.918857 
L 168.380082 81.452821 
L 170.839411 79.488 
L 174.210612 76.209611 
L 176.870858 74.057143 
L 180.041143 70.938837 
L 182.86867 68.626286 
L 185.871673 65.64396 
L 188.838399 63.195429 
L 191.702204 60.3282 
L 194.784698 57.764571 
L 197.532735 54.994429 
L 200.711459 52.333714 
L 203.363265 49.645259 
L 206.621951 46.902857 
L 209.193796 44.282957 
L 212.518893 41.472 
" style="fill:none;stroke:#6ece58;stroke-width:1.5;"/>
   </g>
   <g id="LineCollection_9">
    <path clip-path="url(#p20086a0a64)" d="M 57.6 108.868796 
L 60.940415 106.642286 
L 63.430531 104.544704 
L 68.083813 101.211429 
L 69.261061 100.150127 
L 74.985642 95.780571 
L 75.091592 95.679206 
L 80.922122 90.951721 
L 81.800822 90.349714 
L 86.752653 86.135636 
L 88.45125 84.918857 
L 92.583184 81.254958 
L 94.956532 79.488 
L 98.413714 76.312096 
L 101.343605 74.057143 
L 104.244245 71.31055 
L 107.633944 68.626286 
L 110.074776 66.254505 
L 113.844791 63.195429 
L 115.905306 61.148627 
L 119.990147 57.764571 
L 121.735837 55.997802 
L 126.081443 52.333714 
L 127.566367 50.806926 
L 132.128034 46.902857 
L 133.396898 45.580711 
L 138.137622 41.472 
" style="fill:none;stroke:#b5de2b;stroke-width:1.5;"/>
   </g>
   <g id="LineCollection_10"/>
   <g id="patch_3">
    <path d="M 57.6 307.584 
L 57.6 41.472 
" style="fill:none;stroke:#000000;stroke-linecap:square;stroke-linejoin:miter;stroke-width:0.8;"/>
   </g>
   <g id="patch_4">
    <path d="M 343.296 307.584 
L 343.296 41.472 
" style="fill:none;stroke:#000000;stroke-linecap:square;stroke-linejoin:miter;stroke-width:0.8;"/>
   </g>
   <g id="patch_5">
    <path d="M 57.6 307.584 
L 343.296 307.584 
" style="fill:none;stroke:#000000;stroke-linecap:square;stroke-linejoin:miter;stroke-width:0.8;"/>
   </g>
   <g id="patch_6">
    <path d="M 57.6 41.472 
L 343.296 41.472 
" style="fill:none;stroke:#000000;stroke-linecap:square;stroke-linejoin:miter;stroke-width:0.8;"/>
   </g>
   <g id="text_11">
    <text style="font-family:Arial;font-size:14px;font-stretch:normal;font-style:normal;font-weight:normal;text-anchor:middle;" transform="rotate(-0, 200.448, 35.472)" x="200.448" y="35.472">Mean squared error landscape</text>
   </g>
  </g>
  <g id="axes_2">
   <g id="patch_7">
    <path clip-path="url(#p8ec6000bdd)" d="M 361.152 280.9728 
L 361.152 257.3184 
L 361.152 91.7376 
L 361.152 68.0832 
L 371.79648 68.0832 
L 371.79648 91.7376 
L 371.79648 257.3184 
L 371.79648 280.9728 
z
" style="fill:#ffffff;stroke:#ffffff;stroke-linejoin:miter;stroke-width:0.01;"/>
   </g>
   <g id="matplotlib.axis_3"/>
   <g id="matplotlib.axis_4">
    <g id="ytick_37">
     <g id="line2d_73">
      <g>
       <use style="stroke:#000000;stroke-width:0.8;" x="371.79648" xlink:href="#mf27e1b511e" y="280.9728"/>
      </g>
     </g>
     <g id="text_12">
      <text style="font-family:Arial;font-size:13px;font-stretch:normal;font-style:normal;font-weight:normal;text-anchor:start;" transform="rotate(-0, 377.04648, 285.625378)" x="377.04648" y="285.625378">10</text>
     </g>
    </g>
    <g id="ytick_38">
     <g id="line2d_74">
      <g>
       <use style="stroke:#000000;stroke-width:0.8;" x="371.79648" xlink:href="#mf27e1b511e" y="257.3184"/>
      </g>
     </g>
     <g id="text_13">
      <text style="font-family:Arial;font-size:13px;font-stretch:normal;font-style:normal;font-weight:normal;text-anchor:start;" transform="rotate(-0, 377.04648, 261.970978)" x="377.04648" y="261.970978">17</text>
     </g>
    </g>
    <g id="ytick_39">
     <g id="line2d_75">
      <g>
       <use style="stroke:#000000;stroke-width:0.8;" x="371.79648" xlink:href="#mf27e1b511e" y="233.664"/>
      </g>
     </g>
     <g id="text_14">
      <text style="font-family:Arial;font-size:13px;font-stretch:normal;font-style:normal;font-weight:normal;text-anchor:start;" transform="rotate(-0, 377.04648, 238.316578)" x="377.04648" y="238.316578">31</text>
     </g>
    </g>
    <g id="ytick_40">
     <g id="line2d_76">
      <g>
       <use style="stroke:#000000;stroke-width:0.8;" x="371.79648" xlink:href="#mf27e1b511e" y="210.0096"/>
      </g>
     </g>
     <g id="text_15">
      <text style="font-family:Arial;font-size:13px;font-stretch:normal;font-style:normal;font-weight:normal;text-anchor:start;" transform="rotate(-0, 377.04648, 214.662178)" x="377.04648" y="214.662178">56</text>
     </g>
    </g>
    <g id="ytick_41">
     <g id="line2d_77">
      <g>
       <use style="stroke:#000000;stroke-width:0.8;" x="371.79648" xlink:href="#mf27e1b511e" y="186.3552"/>
      </g>
     </g>
     <g id="text_16">
      <text style="font-family:Arial;font-size:13px;font-stretch:normal;font-style:normal;font-weight:normal;text-anchor:start;" transform="rotate(-0, 377.04648, 191.007778)" x="377.04648" y="191.007778">100</text>
     </g>
    </g>
    <g id="ytick_42">
     <g id="line2d_78">
      <g>
       <use style="stroke:#000000;stroke-width:0.8;" x="371.79648" xlink:href="#mf27e1b511e" y="162.7008"/>
      </g>
     </g>
     <g id="text_17">
      <text style="font-family:Arial;font-size:13px;font-stretch:normal;font-style:normal;font-weight:normal;text-anchor:start;" transform="rotate(-0, 377.04648, 167.353378)" x="377.04648" y="167.353378">177</text>
     </g>
    </g>
    <g id="ytick_43">
     <g id="line2d_79">
      <g>
       <use style="stroke:#000000;stroke-width:0.8;" x="371.79648" xlink:href="#mf27e1b511e" y="139.0464"/>
      </g>
     </g>
     <g id="text_18">
      <text style="font-family:Arial;font-size:13px;font-stretch:normal;font-style:normal;font-weight:normal;text-anchor:start;" transform="rotate(-0, 377.04648, 143.698978)" x="377.04648" y="143.698978">316</text>
     </g>
    </g>
    <g id="ytick_44">
     <g id="line2d_80">
      <g>
       <use style="stroke:#000000;stroke-width:0.8;" x="371.79648" xlink:href="#mf27e1b511e" y="115.392"/>
      </g>
     </g>
     <g id="text_19">
      <text style="font-family:Arial;font-size:13px;font-stretch:normal;font-style:normal;font-weight:normal;text-anchor:start;" transform="rotate(-0, 377.04648, 120.044578)" x="377.04648" y="120.044578">562</text>
     </g>
    </g>
    <g id="ytick_45">
     <g id="line2d_81">
      <g>
       <use style="stroke:#000000;stroke-width:0.8;" x="371.79648" xlink:href="#mf27e1b511e" y="91.7376"/>
      </g>
     </g>
     <g id="text_20">
      <text style="font-family:Arial;font-size:13px;font-stretch:normal;font-style:normal;font-weight:normal;text-anchor:start;" transform="rotate(-0, 377.04648, 96.390178)" x="377.04648" y="96.390178">1000</text>
     </g>
    </g>
    <g id="ytick_46">
     <g id="line2d_82">
      <g>
       <use style="stroke:#000000;stroke-width:0.8;" x="371.79648" xlink:href="#mf27e1b511e" y="68.0832"/>
      </g>
     </g>
     <g id="text_21">
      <text style="font-family:Arial;font-size:13px;font-stretch:normal;font-style:normal;font-weight:normal;text-anchor:start;" transform="rotate(-0, 377.04648, 72.735778)" x="377.04648" y="72.735778">1778</text>
     </g>
    </g>
   </g>
   <g id="LineCollection_11">
    <path clip-path="url(#p8ec6000bdd)" d="M 361.152 280.9728 
L 371.79648 280.9728 
" style="fill:none;stroke:#440154;stroke-width:1.5;"/>
    <path clip-path="url(#p8ec6000bdd)" d="M 361.152 257.3184 
L 371.79648 257.3184 
" style="fill:none;stroke:#482878;stroke-width:1.5;"/>
    <path clip-path="url(#p8ec6000bdd)" d="M 361.152 233.664 
L 371.79648 233.664 
" style="fill:none;stroke:#3e4989;stroke-width:1.5;"/>
    <path clip-path="url(#p8ec6000bdd)" d="M 361.152 210.0096 
L 371.79648 210.0096 
" style="fill:none;stroke:#31688e;stroke-width:1.5;"/>
    <path clip-path="url(#p8ec6000bdd)" d="M 361.152 186.3552 
L 371.79648 186.3552 
" style="fill:none;stroke:#26828e;stroke-width:1.5;"/>
    <path clip-path="url(#p8ec6000bdd)" d="M 361.152 162.7008 
L 371.79648 162.7008 
" style="fill:none;stroke:#1f9e89;stroke-width:1.5;"/>
    <path clip-path="url(#p8ec6000bdd)" d="M 361.152 139.0464 
L 371.79648 139.0464 
" style="fill:none;stroke:#35b779;stroke-width:1.5;"/>
    <path clip-path="url(#p8ec6000bdd)" d="M 361.152 115.392 
L 371.79648 115.392 
" style="fill:none;stroke:#6ece58;stroke-width:1.5;"/>
    <path clip-path="url(#p8ec6000bdd)" d="M 361.152 91.7376 
L 371.79648 91.7376 
" style="fill:none;stroke:#b5de2b;stroke-width:1.5;"/>
    <path clip-path="url(#p8ec6000bdd)" d="M 361.152 68.0832 
L 371.79648 68.0832 
" style="fill:none;stroke:#fde725;stroke-width:1.5;"/>
   </g>
   <g id="patch_8">
    <path d="M 361.152 280.9728 
L 361.152 257.3184 
L 361.152 91.7376 
L 361.152 68.0832 
L 371.79648 68.0832 
L 371.79648 91.7376 
L 371.79648 257.3184 
L 371.79648 280.9728 
z
" style="fill:none;stroke:#000000;stroke-linejoin:miter;stroke-width:0.8;"/>
   </g>
  </g>
 </g>
 <defs>
  <clipPath id="p20086a0a64">
   <rect height="266.112" width="285.696" x="57.6" y="41.472"/>
  </clipPath>
  <clipPath id="p8ec6000bdd">
   <rect height="212.8896" width="10.64448" x="361.152" y="68.0832"/>
  </clipPath>
 </defs>
</svg>
